PathFileType	4	(X/Y/Z)	Kaydara	
DataRate	CameraRate	NumFrames	NumMarkers	Units	OrigDataRate	OrigDataStartFrame	OrigNumFrames	
240.00	240.00	4	72	mm	240.00	270	359	
Frame#	Time	Hips			RightUpLeg			RightLeg			RightFoot			RightFoot_End			LeftUpLeg			LeftLeg			LeftFoot			LeftFoot_End			Spine			Spine1			Spine2			Spine3			Neck			Head			Head_End			RightShoulder			RightArm			RightForeArm			RightHand			RightHandThumb1			RightHandThumb2			RightHandThumb3			RightHandThumb3_End			RightInHandIndex			RightHandIndex1			RightHandIndex2			RightHandIndex3			RightHandIndex3_End			RightInHandMiddle			RightHandMiddle1			RightHandMiddle2			RightHandMiddle3			RightHandMiddle3_End			RightInHandRing			RightHandRing1			RightHandRing2			RightHandRing3			RightHandRing3_End			RightInHandPinky			RightHandPinky1			RightHandPinky2			RightHandPinky3			RightHandPinky3_End			LeftShoulder			LeftArm			LeftForeArm			LeftHand			LeftHandThumb1			LeftHandThumb2			LeftHandThumb3			LeftHandThumb3_End			LeftInHandIndex			LeftHandIndex1			LeftHandIndex2			LeftHandIndex3			LeftHandIndex3_End			LeftInHandMiddle			LeftHandMiddle1			LeftHandMiddle2			LeftHandMiddle3			LeftHandMiddle3_End			LeftInHandRing			LeftHandRing1			LeftHandRing2			LeftHandRing3			LeftHandRing3_End			LeftInHandPinky			LeftHandPinky1			LeftHandPinky2			LeftHandPinky3			LeftHandPinky3_End			
		X1	Y1	Z1	X2	Y2	Z2	X3	Y3	Z3	X4	Y4	Z4	X5	Y5	Z5	X6	Y6	Z6	X7	Y7	Z7	X8	Y8	Z8	X9	Y9	Z9	X10	Y10	Z10	X11	Y11	Z11	X12	Y12	Z12	X13	Y13	Z13	X14	Y14	Z14	X15	Y15	Z15	X16	Y16	Z16	X17	Y17	Z17	X18	Y18	Z18	X19	Y19	Z19	X20	Y20	Z20	X21	Y21	Z21	X22	Y22	Z22	X23	Y23	Z23	X24	Y24	Z24	X25	Y25	Z25	X26	Y26	Z26	X27	Y27	Z27	X28	Y28	Z28	X29	Y29	Z29	X30	Y30	Z30	X31	Y31	Z31	X32	Y32	Z32	X33	Y33	Z33	X34	Y34	Z34	X35	Y35	Z35	X36	Y36	Z36	X37	Y37	Z37	X38	Y38	Z38	X39	Y39	Z39	X40	Y40	Z40	X41	Y41	Z41	X42	Y42	Z42	X43	Y43	Z43	X44	Y44	Z44	X45	Y45	Z45	X46	Y46	Z46	X47	Y47	Z47	X48	Y48	Z48	X49	Y49	Z49	X50	Y50	Z50	X51	Y51	Z51	X52	Y52	Z52	X53	Y53	Z53	X54	Y54	Z54	X55	Y55	Z55	X56	Y56	Z56	X57	Y57	Z57	X58	Y58	Z58	X59	Y59	Z59	X60	Y60	Z60	X61	Y61	Z61	X62	Y62	Z62	X63	Y63	Z63	X64	Y64	Z64	X65	Y65	Z65	X66	Y66	Z66	X67	Y67	Z67	X68	Y68	Z68	X69	Y69	Z69	X70	Y70	Z70	X71	Y71	Z71	X72	Y72	Z72	

270	1.121	4198.941	914.58397	126.699	4244.9236378026435	887.6930933055488	50.9338479272913	4147.535375508826	493.50484716282983	-51.975524184908934	4142.156741941222	102.3865560831196	-129.8749850576623	3991.034215826871	25.458085544539927	-41.657914534191654	4166.222139608166	915.0501849081433	214.41999313846728	4075.3609388167033	512.3691540932806	285.0267292020724	3994.2028325553674	87.06917218364639	361.7013587398545	3873.5914985317413	3.9543163640994314	238.89295569813837	4137.36770011192	1033.6500503516781	76.78170585153818	4077.1215562058273	1089.2772135418456	24.67148000288586	4011.3549261391186	1140.3647773844777	-32.819265903983286	3944.6127231551077	1178.8625181620678	-92.03541764021088	3872.101302281489	1220.3439361164947	-153.68511408668334	3804.6261247913835	1258.8202410030449	-207.34818050784773	3669.0693989459423	1339.8861815076807	-225.69984439155166	3909.396488299493	1195.17301134912	-156.06055558660137	3929.0746207422044	1127.8531787240447	-241.44971574500323	3929.305539054552	945.9198119753029	-129.14219043517815	3848.257310689523	827.3785564823072	-144.46850175849684	3848.256748230308	837.5151377288188	-148.14901130104738	3839.875673198407	836.0272479800201	-149.49752570775965	3833.414793898327	831.756345742448	-149.72608057566796	3827.4945659646282	825.4286437703	-149.30875744220222	3846.6536108013624	827.0644670254073	-145.99064356944473	3839.1372822825597	813.6553016180673	-145.46016511993258	3830.5155141863756	803.175518522078	-144.8181346944214	3824.385750215377	799.7054103105181	-144.889177463653	3818.793016612458	798.8872648663116	-145.26513817375925	3845.0560460863426	818.6786381062745	-144.0635549090804	3836.8616845436313	801.0641700830386	-142.50385660979737	3827.2629745954705	788.5642076681606	-141.55037662458494	3819.7761503836095	783.8668736203504	-141.51473305601132	3813.612211798436	782.7233678296607	-141.86710635832472	3844.1480284808845	813.0840744395714	-142.71362259620915	3836.1004477294073	792.4059477585668	-140.1381903225253	3827.551904880171	780.4508741957991	-139.0511320441326	3820.23347086035	775.3569744490761	-138.88079640825873	3814.391945179523	774.0150285707516	-139.1476920004586	3843.0919197491007	807.1202584011329	-141.1887187644673	3835.1540431288654	784.4326236211817	-137.8796334333647	3828.059206068901	773.2958893385039	-136.6210079685419	3822.6004297439385	768.8240348548685	-136.30900111667347	3817.356333544486	767.2000038629016	-136.43736866923774	3883.1959112723976	1218.425212960333	-109.3612690691233	3855.066731362389	1227.918230941852	-4.473692333045821	3906.436569758587	1027.4339784164422	-28.889049358536024	3877.26648657072	857.2364378268973	-87.47632275026503	3878.487957042862	866.3225311298633	-95.36598144558324	3886.2655520281605	858.6177411825043	-102.17889075820912	3891.2723360419086	849.9635467035584	-106.28778540258162	3895.0959284482624	839.9356318205656	-109.16944642367585	3876.335088044104	856.0735754875149	-93.83757586825477	3876.844160853656	839.0404379647948	-101.08833349530818	3881.4549615963947	823.4155244977183	-105.99404853811336	3886.9520153689127	815.631872931147	-108.9221539988541	3893.2762923875803	810.4914315307568	-111.26360649365054	3875.4058221809705	847.5427656425023	-91.84978531772441	3875.398503336488	826.3159085746921	-97.84680045631313	3880.310857184699	808.1909370276209	-102.91393005477235	3886.8857778912784	798.2843575771957	-106.30934887354834	3893.7779395562948	792.4089867477172	-108.8046075275924	3874.690509869481	841.9638155196492	-90.25909407852578	3873.9290177867974	818.1366136394005	-94.24900688741575	3878.089582313416	801.2732819452376	-98.36379840414547	3884.367332021692	791.1517384036141	-101.47871365065018	3890.8172423781207	785.3592665250976	-103.74895021120648	3874.212093425348	835.9216071249533	-88.22583098872555	3873.065211067569	810.3819352687195	-90.6298726633351	3876.21162961872	795.3198507560554	-93.43671363591432	3880.7010554732587	787.1832313642864	-95.4726172374873	3886.363066089021	781.6181520384446	-97.34778557115621
271	1.125	4198.941	914.58397	126.699	4244.8323556445375	887.6187167614422	50.91166662897134	4147.412028616451	493.4478527058748	-52.03473776862819	4142.213651913562	102.33044421182616	-129.94668560903543	3991.0995122384775	25.38766654938877	-41.72771650461479	4166.309169502819	915.1241332390972	214.44657266959277	4075.5148981765683	512.4308887221647	285.07194304896586	3994.272719897135	87.11882568344711	361.57858447116644	3873.6714729001146	3.99933735828042	238.7634330952281	4137.39078614589	1033.6555243270325	76.76340953801767	4077.1889250342683	1089.305179666325	24.623927998316976	4011.4681365237498	1140.4058542090233	-32.908623136459745	3944.7770145676363	1178.904785405289	-92.18061788197184	3872.3172652343496	1220.387326973853	-153.88936839601894	3804.8850110328276	1258.86427002787	-207.60514755177195	3669.301836402671	1339.900054094452	-225.97558750693003	3909.6308237739363	1195.22260466461	-156.25025898443604	3929.206164228104	1127.6847017998473	-241.53730099971176	3928.2708649283277	946.912388444772	-128.1874364778016	3846.9545315304895	830.6542173804798	-137.55419016874623	3846.235879125502	840.6049331630411	-140.53278092895627	3837.566243962593	839.4338553382966	-140.7406378269479	3830.9984805247163	835.4619964420184	-140.14514333175612	3825.0696225223032	829.4506754440013	-139.01544174471385	3844.880709065106	830.3915446428485	-138.22504845818347	3837.0960022843014	817.4677206955467	-136.190347042552	3828.412268380105	807.4686336238691	-134.3867613046049	3822.256679817647	804.2743008660876	-133.81358281600103	3816.651137348985	803.6688509228624	-133.70887994446483	3843.5542717809494	822.2088935235239	-136.26409316671027	3835.2447595233257	805.1776710707693	-133.21893623874985	3825.6152337211292	793.2276567405643	-130.99823540497817	3818.1149128242614	788.8752302432089	-130.18549146008996	3811.945544141652	787.9703803211696	-130.01199385167502	3842.8439487300584	816.744647225565	-134.92929218232155	3834.862718282264	796.6998857455609	-131.03769241523003	3826.3251199840242	785.2492139520486	-128.84872677500132	3819.0137433756017	780.5013157997828	-127.93020052222741	3813.1766254546787	779.3900741756308	-127.70330118573678	3842.029027537156	810.923603648489	-133.46011359588158	3834.2982444392323	788.9022368814971	-128.97997086070686	3827.2708650642394	778.2057571160425	-126.84878008498313	3821.8456284788335	774.003860368571	-125.99578133353813	3816.6217771359343	772.5943151899045	-125.68945571370435	3883.35786061078	1218.4617671910987	-109.54002837015058	3855.2631817033594	1228.4698552460245	-4.665598710677213	3906.013761098438	1027.7684379978145	-27.469887788522797	3876.6839373228618	858.0264726583301	-84.16617638585035	3877.445245724589	867.0661910063654	-91.824093233127	3884.96252127107	859.4408915351156	-98.92384362036705	3889.8572291156593	850.8813223301323	-103.22196925323233	3893.6465965590264	840.9658844830019	-106.25237939668796	3875.494224749548	856.9540994270136	-90.17551797969938	3875.8826997797314	840.2033706873663	-97.11438507230987	3880.431125511691	824.7730921646157	-102.12983277888094	3885.854209775239	817.055504604888	-105.33830388052748	3892.0935237724216	811.932685657673	-108.05491266131747	3874.758422415053	848.5201725779605	-88.18548766624029	3874.7381143722505	827.6211728689335	-93.87698889814646	3879.6083503058735	809.7204516969217	-99.06498332536616	3886.106479152226	799.8992701020753	-102.79919293349468	3892.911728632679	794.0459488302811	-105.70520374231684	3874.183079123226	843.0027955142519	-86.59772363296044	3873.5320629347243	819.5238411148397	-90.30628610995997	3877.6824541052024	802.8675738630557	-94.5280924740814	3883.900224333686	792.8345667313473	-97.97068473548427	3890.2750933512957	787.0657480007595	-100.62755204171751	3873.867827382322	837.0207556842032	-84.60404006537257	3872.9235274829007	811.8387933701533	-86.7627558537807	3876.102716410172	796.9591054840075	-89.6591463742295	3880.5681861789844	788.8950885998079	-91.93592426646954	3886.175113423603	783.3555797118348	-94.15465786903147
272	1.129	4198.941	914.58397	126.699	4244.744535830821	887.5460218203555	50.890856734176026	4147.296583224917	493.3911386663481	-52.09121504925236	4142.269852731078	102.27496218726719	-130.01625903210504	3991.164158131552	25.31822593095397	-41.794991497388494	4166.392619615995	915.1963824290137	214.4719052072114	4075.6621278675057	512.4909796311925	285.1121583652636	3994.3334380465976	87.16576143817426	361.4423070806593	3873.7421605056547	4.041408234437187	238.62068019233138	4137.414239898208	1033.6609963446924	76.74448266090867	4077.2632703383156	1089.342349422168	24.578466599103294	4011.59511321347	1140.4667481239705	-32.99372226068127	3944.9562213007007	1178.9704486202581	-92.3204208932749	3872.549915962835	1220.4582315107734	-154.08740893402341	3805.162475295572	1258.9395930309472	-207.8554092937842	3669.563577136072	1339.9625566412992	-226.25184256941176	3909.8869964727446	1195.305534123861	-156.437219629653	3929.343791966554	1127.533235397667	-241.61742750966727	3927.1943303993403	947.8983858980382	-127.25416207467677	3845.9160659056397	833.8347148850648	-130.7325295379693	3844.517633759935	843.6584376453583	-133.0018654659033	3835.6398806815005	842.8356338192989	-132.09341037068864	3829.025188247564	839.1760731844199	-130.7024701112218	3823.1410486640907	833.484779048409	-128.89420141144785	3843.4258469881092	833.6574831277462	-130.58665760498698	3835.4790209992375	821.2355326883101	-127.1402737965561	3826.8190486410103	811.7244973371085	-124.235245090391	3820.685948094043	808.8140031689771	-123.036193849585	3815.104223247386	808.4302768437535	-122.45318264122658	3842.3781017387237	825.6536965133197	-128.6200953836699	3834.0611690890696	809.2086946305894	-124.19502803024913	3824.4950411291506	797.8133880092369	-120.77612420639666	3817.0398315708157	793.8140292910946	-119.21005930509546	3810.905264598595	793.1569514765854	-118.51406640179263	3841.8680333317548	820.3021572713809	-127.31816779340635	3834.0517104787873	800.8781075137927	-122.22079828044184	3825.60768776889	789.9326422821279	-118.99341250231708	3818.3601736393302	785.5368412509226	-117.35140178022712	3812.5654208161104	784.6640339838319	-116.6347196978271	3841.2947450673328	814.6031982312609	-125.92139432479038	3833.8615163784716	793.2237075912774	-120.38222670211745	3826.9681351608233	782.962965598553	-117.43402320314071	3821.618052355839	779.032976030801	-116.06033384272892	3816.448173686192	777.8433274480444	-115.32418164959996	3883.529960131878	1218.5171075496082	-109.70943197685608	3855.4694279197856	1229.0408582178839	-4.853058363418663	3905.6690031707476	1028.1643681925013	-26.076783852448216	3876.187037075783	858.8688604429093	-81.06408610418923	3876.476989346503	867.8533278430126	-88.47404960282267	3883.691923586229	860.2779586377957	-95.87313548841237	3888.4455317592565	851.7915664041632	-100.3765649538899	3892.1766844285335	841.969987206953	-103.57542973513497	3874.730693732422	857.875842508139	-86.72965173908727	3874.9735761635575	841.3801675086836	-93.39896461336177	3879.425983282704	826.1166823898651	-98.5567641606713	3884.747005919631	818.4458419092374	-102.05832331011598	3890.8732647171955	813.3233023664192	-105.15552132353116	3874.1891067332017	849.5369863012495	-84.75610801192207	3874.1318415973637	828.938184960887	-90.19351705917873	3878.9234076883613	811.2311720819401	-95.5403079223426	3885.3109293293974	801.4720056671786	-99.62977911493033	3891.9985659668937	795.6217198855123	-102.95303198752575	3873.755063064431	844.0806782208689	-83.1834455489671	3873.194670558644	820.92497491684	-86.66738192456847	3877.3032291241198	804.4490292882862	-91.03157235741014	3883.428508176085	794.4819392522163	-94.81895456159484	3889.699519676154	788.7188648386049	-97.86913551505475	3873.603960686328	838.1584015326539	-81.24195321099248	3872.8451761429033	813.3112262380174	-83.21524129599312	3876.0321804906816	798.5924380611335	-86.23285672986097	3880.450171865935	790.5844852334526	-88.7646131479593	3885.976599720748	785.0546595751706	-91.3337654254013
273	1.133	4198.941	914.58397	126.699	4244.66009479929	887.4748629516079	50.871340419097585	4147.1898313415	493.334458480918	-52.14547285876567	4142.325088496005	102.21992497144626	-130.08443757906022	3991.227777763754	25.24977147969425	-41.86050885812463	4166.47250800625	915.2670469986023	214.4960606842477	4075.801813019774	512.5496726753101	285.1470834108564	3994.3843645910015	87.2102021211451	361.29241943636856	3873.8029504250494	4.08062346873371	238.46466519477036	4137.438357092258	1033.666612032823	76.72496427207207	4077.343723612451	1089.3874274106847	24.53493085677714	4011.733743507427	1140.5447386040294	-33.07459690359292	3945.147358179176	1179.056373771854	-92.45417338847396	3872.795367040181	1220.5531003518665	-154.27782928718648	3805.4539229589313	1259.0424051034558	-208.09687999277634	3669.8513160360417	1340.071683804644	-226.52664650899956	3910.159241894807	1195.4157141314224	-156.6198624438618	3929.4767851274637	1127.38912086195	-241.68574158323312	3926.0807316724367	948.8560665445244	-126.33900009788246	3845.139861926182	836.8500931743309	-124.11649569233897	3843.110386583489	846.6051318586684	-125.68047067828546	3834.108818317861	846.1521398015446	-123.69643425015607	3827.5081064781853	842.8100875731186	-121.55020559493704	3821.7213460619682	837.4347899570215	-119.10693548394384	3842.2923803355766	836.7881904407767	-123.20094841134923	3834.290484332129	824.8717716305018	-118.45623754504399	3825.739264816428	815.8442886373809	-114.5258154423233	3819.677152647898	813.2186585316475	-112.72821348481382	3814.1564626346067	813.0600832401881	-111.67604611144891	3841.5260868364944	828.9361825985545	-121.25677289852678	3833.3076361875155	813.0663206560686	-115.57750105601642	3823.897678419465	802.2172174614107	-111.04670198518662	3816.54610851209	798.5704388431895	-108.76187339012719	3810.487072549933	798.1640447519869	-107.55417437254334	3841.215420217181	823.6781293356545	-120.00473194137376	3833.657966889834	804.8481997705718	-113.82939485179293	3825.3882451090535	794.396872042144	-109.64201137685069	3818.2609767628824	790.3507558513465	-107.31154688650005	3812.546850720077	789.7182003750568	-106.11603095907253	3840.8802389873035	818.0789302774194	-118.69567660555042	3833.8283690128524	797.3031920623604	-112.22461144289102	3827.1330072957235	787.4637353108551	-108.5266214124511	3821.898904278575	783.8011898716418	-106.6599351703355	3816.81671921139	782.8314919428497	-105.50488818919672	3883.7108884909094	1218.5905589895938	-109.86880091837868	3855.6875651108817	1229.6334784311769	-5.034790346696296	3905.4005456929503	1028.6187744879112	-24.704856358408556	3875.771999810889	859.7427931202476	-78.1676412592461	3875.5869224107955	868.6662122453705	-85.31883673869287	3882.4612777516036	861.1126729553654	-93.02396287490826	3887.0460092482076	852.678064700563	-97.7444780853236	3890.6948083266507	842.9309495078442	-101.1277043148609	3874.043962276205	858.8177886142806	-83.50368243577913	3874.115984461424	842.5464618469779	-89.94917257790334	3878.438424413068	827.4202545494504	-95.2781505279062	3883.63019305952	819.777207463627	-99.07973110043095	3889.616784026161	814.6388519652512	-102.55584530188088	3873.6935689142865	850.569723904948	-81.56423649526299	3873.57307162303	830.2388595339256	-86.80168521901987	3878.2485860084494	812.6928723568807	-92.34089977567521	3884.4925320628668	802.9726260973282	-96.79503950491167	3891.0333581052996	797.1076537441477	-100.53421039463413	3873.3994884894514	845.1723098285028	-80.0180369715782	3872.905461327308	822.3092462098623	-83.33597442179142	3876.939300233258	805.9847003777892	-87.87399199937812	3882.9401255009134	796.0610192018981	-92.0163707931518	3889.0797494797766	790.2869162367255	-95.45915730206318	3873.4105169289287	839.3076694585603	-78.13982783417921	3872.814261098045	814.7661005534663	-79.98860225877891	3875.9823750440637	800.1845060592359	-83.15569313328098	3880.3293948599776	792.2159352890109	-85.9513589398853	3885.7508329249117	786.6807826898649	-88.87115787977103
